<svg
      class="section__image"
      width="778"
      height="471"
      viewBox="0 0 778 471"
      fill="none"
      xmlns="http://www.w3.org/2000/svg"
    >
      <g clip-path="url(#clip0_36176_99019)">
        <path
          class="vertical-line-1"
          d="M64.5765 431C64.5765 432.473 65.7704 433.667 67.2432 433.667C68.7159 433.667 69.9098 432.473 69.9098 431C69.9098 429.527 68.7159 428.333 67.2432 428.333C65.7704 428.333 64.5765 429.527 64.5765 431ZM67.2432 244H66.7432V431H67.2432H67.7432V244H67.2432Z"
          fill="#C7C7D6"
        ></path>
        <g class="adoption-time-block">
          <path d="M25.0635 184.134V415.134" stroke="#C7C7D6"></path>
          <path
            d="M25 407H368.946M25 407L30.2215 402M25 407L30.2215 412M368.946 407L363.725 402M368.946 407L363.725 412"
            stroke="#C7C7D6"
          ></path>
          <rect
            width="107.562"
            height="32"
            transform="translate(143 392)"
            fill="white"
          ></rect>
          <path
            d="M162.367 412H161.079L160.253 409.928H155.521L154.695 412H153.407L157.159 402.662H158.601L162.367 412ZM159.903 408.892L157.887 403.698L155.857 408.892H159.903ZM169.496 412H168.446V410.992C167.942 411.678 167.116 412.168 166.164 412.168C164.4 412.168 163.154 410.824 163.154 408.626C163.154 406.47 164.386 405.07 166.164 405.07C167.074 405.07 167.9 405.518 168.446 406.26V402.662H169.496V412ZM168.446 410.166V407.1C168.068 406.512 167.256 406.008 166.416 406.008C165.058 406.008 164.246 407.128 164.246 408.626C164.246 410.124 165.058 411.23 166.416 411.23C167.256 411.23 168.068 410.754 168.446 410.166ZM174.553 412.168C172.495 412.168 171.207 410.572 171.207 408.612C171.207 406.652 172.495 405.07 174.553 405.07C176.611 405.07 177.899 406.652 177.899 408.612C177.899 410.572 176.611 412.168 174.553 412.168ZM174.553 411.23C175.995 411.23 176.793 409.998 176.793 408.612C176.793 407.24 175.995 406.008 174.553 406.008C173.111 406.008 172.299 407.24 172.299 408.612C172.299 409.998 173.111 411.23 174.553 411.23ZM180.661 410.978V414.576H179.611V405.238H180.661V406.246C181.151 405.56 181.991 405.07 182.943 405.07C184.721 405.07 185.953 406.414 185.953 408.612C185.953 410.796 184.721 412.168 182.943 412.168C182.019 412.168 181.207 411.734 180.661 410.978ZM184.847 408.612C184.847 407.114 184.035 406.008 182.677 406.008C181.851 406.008 181.025 406.498 180.661 407.086V410.138C181.025 410.726 181.851 411.23 182.677 411.23C184.035 411.23 184.847 410.11 184.847 408.612ZM189.358 412.168C188.364 412.168 187.86 411.594 187.86 410.586V406.162H186.74V405.238H187.86V403.39H188.91V405.238H190.282V406.162H188.91V410.362C188.91 410.866 189.134 411.23 189.596 411.23C189.89 411.23 190.17 411.104 190.31 410.95L190.618 411.734C190.352 411.986 189.974 412.168 189.358 412.168ZM192.283 404.104C191.905 404.104 191.583 403.782 191.583 403.39C191.583 402.998 191.905 402.69 192.283 402.69C192.675 402.69 192.997 402.998 192.997 403.39C192.997 403.782 192.675 404.104 192.283 404.104ZM192.815 412H191.765V405.238H192.815V412ZM197.863 412.168C195.805 412.168 194.517 410.572 194.517 408.612C194.517 406.652 195.805 405.07 197.863 405.07C199.921 405.07 201.209 406.652 201.209 408.612C201.209 410.572 199.921 412.168 197.863 412.168ZM197.863 411.23C199.305 411.23 200.103 409.998 200.103 408.612C200.103 407.24 199.305 406.008 197.863 406.008C196.421 406.008 195.609 407.24 195.609 408.612C195.609 409.998 196.421 411.23 197.863 411.23ZM208.535 412H207.485V407.576C207.485 406.386 206.883 406.008 205.973 406.008C205.147 406.008 204.363 406.512 203.971 407.058V412H202.921V405.238H203.971V406.218C204.447 405.658 205.371 405.07 206.379 405.07C207.793 405.07 208.535 405.784 208.535 407.254V412ZM215.949 412.168C214.955 412.168 214.451 411.594 214.451 410.586V406.162H213.331V405.238H214.451V403.39H215.501V405.238H216.873V406.162H215.501V410.362C215.501 410.866 215.725 411.23 216.187 411.23C216.481 411.23 216.761 411.104 216.901 410.95L217.209 411.734C216.943 411.986 216.565 412.168 215.949 412.168ZM218.875 404.104C218.497 404.104 218.175 403.782 218.175 403.39C218.175 402.998 218.497 402.69 218.875 402.69C219.267 402.69 219.589 402.998 219.589 403.39C219.589 403.782 219.267 404.104 218.875 404.104ZM219.407 412H218.357V405.238H219.407V412ZM230.713 412H229.663V407.408C229.663 406.554 229.285 406.008 228.417 406.008C227.717 406.008 226.975 406.512 226.625 407.044V412H225.575V407.408C225.575 406.554 225.211 406.008 224.329 406.008C223.643 406.008 222.915 406.512 222.551 407.058V412H221.501V405.238H222.551V406.218C222.831 405.784 223.741 405.07 224.735 405.07C225.771 405.07 226.359 405.63 226.555 406.33C226.933 405.714 227.843 405.07 228.823 405.07C230.055 405.07 230.713 405.756 230.713 407.114V412ZM232.416 408.612C232.416 406.652 233.816 405.07 235.748 405.07C237.792 405.07 238.996 406.666 238.996 408.696V408.962H233.522C233.606 410.236 234.502 411.3 235.958 411.3C236.728 411.3 237.512 410.992 238.044 410.446L238.548 411.132C237.876 411.804 236.966 412.168 235.86 412.168C233.858 412.168 232.416 410.726 232.416 408.612ZM235.734 405.938C234.292 405.938 233.578 407.156 233.522 408.192H237.96C237.946 407.184 237.274 405.938 235.734 405.938Z"
            fill="#54575E"
          ></path>
        </g>

        <path
          d="M12 74.68L12 76.122L2.662 79.874L2.662 78.544L10.726 75.394L2.662 72.244L2.662 70.914L12 74.68ZM8.612 70.9611C6.652 70.9611 5.07 69.5611 5.07 67.6291C5.07 65.5851 6.666 64.3811 8.696 64.3811L8.962 64.3811L8.962 69.8551C10.236 69.7711 11.3 68.8751 11.3 67.4191C11.3 66.6491 10.992 65.8651 10.446 65.3331L11.132 64.8291C11.804 65.5011 12.168 66.4111 12.168 67.5171C12.168 69.5191 10.726 70.9611 8.612 70.9611ZM5.938 67.6431C5.938 69.0851 7.156 69.7991 8.192 69.8551L8.192 65.4171C7.184 65.4311 5.938 66.1031 5.938 67.6431ZM12 61.6305L12 62.6805L2.662 62.6805L2.662 61.6305L12 61.6305ZM12.168 56.5819C12.168 58.6399 10.572 59.9279 8.612 59.9279C6.652 59.9279 5.07 58.6399 5.07 56.5819C5.07 54.5239 6.652 53.2359 8.612 53.2359C10.572 53.2359 12.168 54.5239 12.168 56.5819ZM11.23 56.5819C11.23 55.1399 9.998 54.3419 8.612 54.3419C7.24 54.3419 6.008 55.1399 6.008 56.5819C6.008 58.0239 7.24 58.8359 8.612 58.8359C9.998 58.8359 11.23 58.0239 11.23 56.5819ZM8.612 51.9162C6.61 51.9162 5.07 50.5582 5.07 48.5422C5.07 47.3102 5.574 46.5822 6.246 46.0642L6.89 46.7642C6.274 47.2122 6.008 47.7862 6.008 48.4862C6.008 49.9282 7.114 50.8242 8.612 50.8242C10.11 50.8242 11.23 49.9282 11.23 48.4862C11.23 47.7862 10.95 47.2122 10.348 46.7642L10.992 46.0642C11.664 46.5822 12.168 47.3102 12.168 48.5422C12.168 50.5582 10.628 51.9162 8.612 51.9162ZM4.104 44.0746C4.104 44.4526 3.782 44.7746 3.39 44.7746C2.998 44.7746 2.69 44.4526 2.69 44.0746C2.69 43.6826 2.998 43.3606 3.39 43.3606C3.782 43.3606 4.104 43.6826 4.104 44.0746ZM12 43.5426L12 44.5926L5.238 44.5926L5.238 43.5426L12 43.5426ZM12.168 39.74C12.168 40.734 11.594 41.238 10.586 41.238L6.162 41.238L6.162 42.358L5.238 42.358L5.238 41.238L3.39 41.238L3.39 40.188L5.238 40.188L5.238 38.816L6.162 38.816L6.162 40.188L10.362 40.188C10.866 40.188 11.23 39.964 11.23 39.502C11.23 39.208 11.104 38.928 10.95 38.788L11.734 38.48C11.986 38.746 12.168 39.124 12.168 39.74ZM14.646 37.7108L13.694 37.5428C13.764 37.3888 13.806 37.1368 13.806 36.9688C13.806 36.5068 13.652 36.1988 13.092 35.9608L12.07 35.5128L5.238 38.3408L5.238 37.2068L10.782 34.9528L5.238 32.7128L5.238 31.5648L13.372 34.9528C14.352 35.3588 14.73 36.0448 14.744 36.9408C14.744 37.1648 14.702 37.5148 14.646 37.7108Z"
          fill="#54575E"
        ></path>
        <g class="progress-block">
          <g opacity="0.16" clip-path="url(#clip1_36176_99019)">
            <rect
              width="343.946"
              height="146"
              transform="translate(25.0635 245)"
              fill="#FF1F23"
            ></rect>
            <rect
              x="39.5801"
              y="145"
              width="15"
              height="354.957"
              transform="rotate(45 39.5801 145)"
              fill="#D9D9D9"
            ></rect>
            <rect
              x="63.5801"
              y="145"
              width="15"
              height="354.957"
              transform="rotate(45 63.5801 145)"
              fill="#D9D9D9"
            ></rect>
            <rect
              x="87.5801"
              y="145"
              width="15"
              height="354.957"
              transform="rotate(45 87.5801 145)"
              fill="#D9D9D9"
            ></rect>
            <rect
              x="111.58"
              y="145"
              width="15"
              height="354.957"
              transform="rotate(45 111.58 145)"
              fill="#D9D9D9"
            ></rect>
            <rect
              x="135.58"
              y="145"
              width="15"
              height="354.957"
              transform="rotate(45 135.58 145)"
              fill="#D9D9D9"
            ></rect>
            <rect
              x="159.58"
              y="145"
              width="15"
              height="354.957"
              transform="rotate(45 159.58 145)"
              fill="#D9D9D9"
            ></rect>
            <rect
              x="183.58"
              y="145"
              width="15"
              height="354.957"
              transform="rotate(45 183.58 145)"
              fill="#D9D9D9"
            ></rect>
            <rect
              x="207.58"
              y="145"
              width="15"
              height="354.957"
              transform="rotate(45 207.58 145)"
              fill="#D9D9D9"
            ></rect>
            <rect
              x="231.58"
              y="145"
              width="15"
              height="354.957"
              transform="rotate(45 231.58 145)"
              fill="#D9D9D9"
            ></rect>
            <rect
              x="255.58"
              y="145"
              width="15"
              height="354.957"
              transform="rotate(45 255.58 145)"
              fill="#D9D9D9"
            ></rect>
            <rect
              x="279.58"
              y="145"
              width="15"
              height="354.957"
              transform="rotate(45 279.58 145)"
              fill="#D9D9D9"
            ></rect>
            <rect
              x="303.58"
              y="145"
              width="15"
              height="354.957"
              transform="rotate(45 303.58 145)"
              fill="#D9D9D9"
            ></rect>
            <rect
              x="327.58"
              y="145"
              width="15"
              height="354.957"
              transform="rotate(45 327.58 145)"
              fill="#D9D9D9"
            ></rect>
            <rect
              x="351.58"
              y="145"
              width="15"
              height="354.957"
              transform="rotate(45 351.58 145)"
              fill="#D9D9D9"
            ></rect>
            <rect
              x="375.58"
              y="145"
              width="15"
              height="354.957"
              transform="rotate(45 375.58 145)"
              fill="#D9D9D9"
            ></rect>
            <rect
              x="399.58"
              y="145"
              width="15"
              height="354.957"
              transform="rotate(45 399.58 145)"
              fill="#D9D9D9"
            ></rect>
            <rect
              x="423.58"
              y="145"
              width="15"
              height="354.957"
              transform="rotate(45 423.58 145)"
              fill="#D9D9D9"
            ></rect>
            <rect
              x="447.58"
              y="145"
              width="15"
              height="354.957"
              transform="rotate(45 447.58 145)"
              fill="#D9D9D9"
            ></rect>
            <rect
              x="471.58"
              y="145"
              width="15"
              height="354.957"
              transform="rotate(45 471.58 145)"
              fill="#D9D9D9"
            ></rect>
            <rect
              x="495.58"
              y="145"
              width="15"
              height="354.957"
              transform="rotate(45 495.58 145)"
              fill="#D9D9D9"
            ></rect>
            <rect
              x="519.58"
              y="145"
              width="15"
              height="354.957"
              transform="rotate(45 519.58 145)"
              fill="#D9D9D9"
            ></rect>
            <rect
              x="543.58"
              y="145"
              width="15"
              height="354.957"
              transform="rotate(45 543.58 145)"
              fill="#D9D9D9"
            ></rect>
            <rect
              x="567.58"
              y="145"
              width="15"
              height="354.957"
              transform="rotate(45 567.58 145)"
              fill="#D9D9D9"
            ></rect>
            <rect
              x="591.58"
              y="145"
              width="15"
              height="354.957"
              transform="rotate(45 591.58 145)"
              fill="#D9D9D9"
            ></rect>
            <rect
              x="615.58"
              y="145"
              width="15"
              height="354.957"
              transform="rotate(45 615.58 145)"
              fill="#D9D9D9"
            ></rect>
          </g>
        </g>
        <g class="graphic-line">
          <path
            d="M25.585 245H773.823"
            stroke="#54575E"
            stroke-width="2"
          ></path>
          <path
            d="M630.715 267H629.455L627.397 259.468L625.339 267H624.079L621.419 257.662H622.707L624.779 265.446L626.921 257.662H627.887L630.029 265.446L632.087 257.662H633.375L630.715 267ZM635.151 259.104C634.773 259.104 634.451 258.782 634.451 258.39C634.451 257.998 634.773 257.69 635.151 257.69C635.543 257.69 635.865 257.998 635.865 258.39C635.865 258.782 635.543 259.104 635.151 259.104ZM635.683 267H634.633V260.238H635.683V267ZM639.485 267.168C638.491 267.168 637.987 266.594 637.987 265.586V261.162H636.867V260.238H637.987V258.39H639.037V260.238H640.409V261.162H639.037V265.362C639.037 265.866 639.261 266.23 639.723 266.23C640.017 266.23 640.297 266.104 640.437 265.95L640.745 266.734C640.479 266.986 640.101 267.168 639.485 267.168ZM647.521 267H646.471V262.548C646.471 261.358 645.855 261.008 644.945 261.008C644.133 261.008 643.349 261.512 642.943 262.058V267H641.893V257.662H642.943V261.218C643.419 260.658 644.343 260.07 645.365 260.07C646.779 260.07 647.521 260.756 647.521 262.226V267ZM652.571 267.168C650.513 267.168 649.225 265.572 649.225 263.612C649.225 261.652 650.513 260.07 652.571 260.07C654.629 260.07 655.917 261.652 655.917 263.612C655.917 265.572 654.629 267.168 652.571 267.168ZM652.571 266.23C654.013 266.23 654.811 264.998 654.811 263.612C654.811 262.24 654.013 261.008 652.571 261.008C651.129 261.008 650.317 262.24 650.317 263.612C650.317 264.998 651.129 266.23 652.571 266.23ZM663.243 267H662.193V266.048C661.675 266.636 660.793 267.168 659.785 267.168C658.371 267.168 657.629 266.482 657.629 265.012V260.238H658.679V264.69C658.679 265.88 659.281 266.23 660.191 266.23C661.017 266.23 661.801 265.754 662.193 265.208V260.238H663.243V267ZM667.048 267.168C666.054 267.168 665.55 266.594 665.55 265.586V261.162H664.43V260.238H665.55V258.39H666.6V260.238H667.972V261.162H666.6V265.362C666.6 265.866 666.824 266.23 667.286 266.23C667.58 266.23 667.86 266.104 668 265.95L668.308 266.734C668.042 266.986 667.664 267.168 667.048 267.168ZM679.014 267H677.964V265.992C677.46 266.678 676.634 267.168 675.682 267.168C673.918 267.168 672.672 265.824 672.672 263.626C672.672 261.47 673.904 260.07 675.682 260.07C676.592 260.07 677.418 260.518 677.964 261.26V257.662H679.014V267ZM677.964 265.166V262.1C677.586 261.512 676.774 261.008 675.934 261.008C674.576 261.008 673.764 262.128 673.764 263.626C673.764 265.124 674.576 266.23 675.934 266.23C676.774 266.23 677.586 265.754 677.964 265.166ZM680.725 263.612C680.725 261.652 682.125 260.07 684.057 260.07C686.101 260.07 687.305 261.666 687.305 263.696V263.962H681.831C681.915 265.236 682.811 266.3 684.267 266.3C685.037 266.3 685.821 265.992 686.353 265.446L686.857 266.132C686.185 266.804 685.275 267.168 684.169 267.168C682.167 267.168 680.725 265.726 680.725 263.612ZM684.043 260.938C682.601 260.938 681.887 262.156 681.831 263.192H686.269C686.255 262.184 685.583 260.938 684.043 260.938ZM688.418 266.104L688.964 265.348C689.412 265.866 690.266 266.314 691.19 266.314C692.226 266.314 692.786 265.852 692.786 265.194C692.786 264.452 691.96 264.214 691.05 263.99C689.902 263.724 688.6 263.416 688.6 262.016C688.6 260.966 689.51 260.07 691.12 260.07C692.268 260.07 693.08 260.504 693.626 261.05L693.136 261.778C692.73 261.288 691.988 260.924 691.12 260.924C690.196 260.924 689.622 261.344 689.622 261.946C689.622 262.604 690.392 262.814 691.274 263.024C692.45 263.29 693.808 263.626 693.808 265.124C693.808 266.258 692.898 267.168 691.148 267.168C690.042 267.168 689.104 266.832 688.418 266.104ZM696.032 259.104C695.654 259.104 695.332 258.782 695.332 258.39C695.332 257.998 695.654 257.69 696.032 257.69C696.424 257.69 696.746 257.998 696.746 258.39C696.746 258.782 696.424 259.104 696.032 259.104ZM696.564 267H695.514V260.238H696.564V267ZM698.644 268.736L699.176 267.952C699.736 268.624 700.408 268.876 701.374 268.876C702.494 268.876 703.544 268.33 703.544 266.846V265.88C703.054 266.566 702.228 267.084 701.276 267.084C699.512 267.084 698.266 265.768 698.266 263.584C698.266 261.414 699.498 260.07 701.276 260.07C702.186 260.07 702.998 260.518 703.544 261.26V260.238H704.594V266.804C704.594 269.044 703.026 269.744 701.374 269.744C700.226 269.744 699.442 269.52 698.644 268.736ZM703.544 265.054V262.1C703.18 261.512 702.368 261.008 701.528 261.008C700.17 261.008 699.358 262.086 699.358 263.584C699.358 265.068 700.17 266.16 701.528 266.16C702.368 266.16 703.18 265.642 703.544 265.054ZM712.311 267H711.261V262.576C711.261 261.386 710.659 261.008 709.749 261.008C708.923 261.008 708.139 261.512 707.747 262.058V267H706.697V260.238H707.747V261.218C708.223 260.658 709.147 260.07 710.155 260.07C711.569 260.07 712.311 260.784 712.311 262.254V267ZM717.43 266.104L717.976 265.348C718.424 265.866 719.278 266.314 720.202 266.314C721.238 266.314 721.798 265.852 721.798 265.194C721.798 264.452 720.972 264.214 720.062 263.99C718.914 263.724 717.612 263.416 717.612 262.016C717.612 260.966 718.522 260.07 720.132 260.07C721.28 260.07 722.092 260.504 722.638 261.05L722.148 261.778C721.742 261.288 721 260.924 720.132 260.924C719.208 260.924 718.634 261.344 718.634 261.946C718.634 262.604 719.404 262.814 720.286 263.024C721.462 263.29 722.82 263.626 722.82 265.124C722.82 266.258 721.91 267.168 720.16 267.168C719.054 267.168 718.116 266.832 717.43 266.104ZM724.147 269.646L724.315 268.694C724.469 268.764 724.721 268.806 724.889 268.806C725.351 268.806 725.659 268.652 725.897 268.092L726.345 267.07L723.517 260.238H724.651L726.905 265.782L729.145 260.238H730.293L726.905 268.372C726.499 269.352 725.813 269.73 724.917 269.744C724.693 269.744 724.343 269.702 724.147 269.646ZM730.801 266.104L731.347 265.348C731.795 265.866 732.649 266.314 733.573 266.314C734.609 266.314 735.169 265.852 735.169 265.194C735.169 264.452 734.343 264.214 733.433 263.99C732.285 263.724 730.983 263.416 730.983 262.016C730.983 260.966 731.893 260.07 733.503 260.07C734.651 260.07 735.463 260.504 736.009 261.05L735.519 261.778C735.113 261.288 734.371 260.924 733.503 260.924C732.579 260.924 732.005 261.344 732.005 261.946C732.005 262.604 732.775 262.814 733.657 263.024C734.833 263.29 736.191 263.626 736.191 265.124C736.191 266.258 735.281 267.168 733.531 267.168C732.425 267.168 731.487 266.832 730.801 266.104ZM739.605 267.168C738.611 267.168 738.107 266.594 738.107 265.586V261.162H736.987V260.238H738.107V258.39H739.157V260.238H740.529V261.162H739.157V265.362C739.157 265.866 739.381 266.23 739.843 266.23C740.137 266.23 740.417 266.104 740.557 265.95L740.865 266.734C740.599 266.986 740.221 267.168 739.605 267.168ZM741.62 263.612C741.62 261.652 743.02 260.07 744.952 260.07C746.996 260.07 748.2 261.666 748.2 263.696V263.962H742.726C742.81 265.236 743.706 266.3 745.162 266.3C745.932 266.3 746.716 265.992 747.248 265.446L747.752 266.132C747.08 266.804 746.17 267.168 745.064 267.168C743.062 267.168 741.62 265.726 741.62 263.612ZM744.938 260.938C743.496 260.938 742.782 262.156 742.726 263.192H747.164C747.15 262.184 746.478 260.938 744.938 260.938ZM759.112 267H758.062V262.408C758.062 261.554 757.684 261.008 756.816 261.008C756.116 261.008 755.374 261.512 755.024 262.044V267H753.974V262.408C753.974 261.554 753.61 261.008 752.728 261.008C752.042 261.008 751.314 261.512 750.95 262.058V267H749.9V260.238H750.95V261.218C751.23 260.784 752.14 260.07 753.134 260.07C754.17 260.07 754.758 260.63 754.954 261.33C755.332 260.714 756.242 260.07 757.222 260.07C758.454 260.07 759.112 260.756 759.112 262.114V267Z"
            fill="#54575E"
          ></path>
        </g>

        <path
          d="M25.0633 15V391L776.956 391M25.0633 15L19.8418 20M25.0633 15L30.2847 20M776.956 391L771.734 386M776.956 391L771.734 396"
          stroke="#54575E"
        ></path>

        <path
          class="vertical-line-2"
          d="M366.343 431C366.343 432.473 367.537 433.667 369.01 433.667C370.483 433.667 371.676 432.473 371.676 431C371.676 429.527 370.483 428.333 369.01 428.333C367.537 428.333 366.343 429.527 366.343 431ZM369.01 246H368.51V431H369.01H369.51V246H369.01Z"
          fill="#C7C7D6"
        ></path>
        <g class="progress-line-1">
          <path
            d="M26.1074 246.5C107.706 348.123 264.905 310.063 369.5 244.5C474.095 178.937 548.039 72.6691 778 53"
            stroke="#00267B"
            stroke-width="2"
            stroke-linecap="round"
          ></path>
          <path
            d="M653.683 102H652.395L651.569 99.928H646.837L646.011 102H644.723L648.475 92.662H649.917L653.683 102ZM651.219 98.892L649.203 93.698L647.173 98.892H651.219ZM660.476 102H659.426V97.576C659.426 96.386 658.824 96.008 657.914 96.008C657.088 96.008 656.304 96.512 655.912 97.058V102H654.862V95.238H655.912V96.218C656.388 95.658 657.312 95.07 658.32 95.07C659.734 95.07 660.476 95.784 660.476 97.254V102ZM662.195 104.646L662.363 103.694C662.517 103.764 662.769 103.806 662.937 103.806C663.399 103.806 663.707 103.652 663.945 103.092L664.393 102.07L661.565 95.238H662.699L664.953 100.782L667.193 95.238H668.341L664.953 103.372C664.547 104.352 663.861 104.73 662.965 104.744C662.741 104.744 662.391 104.702 662.195 104.646ZM678.996 102H677.946V100.992C677.442 101.678 676.616 102.168 675.664 102.168C673.9 102.168 672.654 100.824 672.654 98.626C672.654 96.47 673.886 95.07 675.664 95.07C676.574 95.07 677.4 95.518 677.946 96.26V92.662H678.996V102ZM677.946 100.166V97.1C677.568 96.512 676.756 96.008 675.916 96.008C674.558 96.008 673.746 97.128 673.746 98.626C673.746 100.124 674.558 101.23 675.916 101.23C676.756 101.23 677.568 100.754 677.946 100.166ZM680.706 98.612C680.706 96.652 682.106 95.07 684.038 95.07C686.082 95.07 687.286 96.666 687.286 98.696V98.962H681.812C681.896 100.236 682.792 101.3 684.248 101.3C685.018 101.3 685.802 100.992 686.334 100.446L686.838 101.132C686.166 101.804 685.256 102.168 684.15 102.168C682.148 102.168 680.706 100.726 680.706 98.612ZM684.024 95.938C682.582 95.938 681.868 97.156 681.812 98.192H686.25C686.236 97.184 685.564 95.938 684.024 95.938ZM688.399 101.104L688.945 100.348C689.393 100.866 690.247 101.314 691.171 101.314C692.207 101.314 692.767 100.852 692.767 100.194C692.767 99.452 691.941 99.214 691.031 98.99C689.883 98.724 688.581 98.416 688.581 97.016C688.581 95.966 689.491 95.07 691.101 95.07C692.249 95.07 693.061 95.504 693.607 96.05L693.117 96.778C692.711 96.288 691.969 95.924 691.101 95.924C690.177 95.924 689.603 96.344 689.603 96.946C689.603 97.604 690.373 97.814 691.255 98.024C692.431 98.29 693.789 98.626 693.789 100.124C693.789 101.258 692.879 102.168 691.129 102.168C690.023 102.168 689.085 101.832 688.399 101.104ZM696.013 94.104C695.635 94.104 695.313 93.782 695.313 93.39C695.313 92.998 695.635 92.69 696.013 92.69C696.405 92.69 696.727 92.998 696.727 93.39C696.727 93.782 696.405 94.104 696.013 94.104ZM696.545 102H695.495V95.238H696.545V102ZM698.625 103.736L699.157 102.952C699.717 103.624 700.389 103.876 701.355 103.876C702.475 103.876 703.525 103.33 703.525 101.846V100.88C703.035 101.566 702.209 102.084 701.257 102.084C699.493 102.084 698.247 100.768 698.247 98.584C698.247 96.414 699.479 95.07 701.257 95.07C702.167 95.07 702.979 95.518 703.525 96.26V95.238H704.575V101.804C704.575 104.044 703.007 104.744 701.355 104.744C700.207 104.744 699.423 104.52 698.625 103.736ZM703.525 100.054V97.1C703.161 96.512 702.349 96.008 701.509 96.008C700.151 96.008 699.339 97.086 699.339 98.584C699.339 100.068 700.151 101.16 701.509 101.16C702.349 101.16 703.161 100.642 703.525 100.054ZM712.292 102H711.242V97.576C711.242 96.386 710.64 96.008 709.73 96.008C708.904 96.008 708.12 96.512 707.728 97.058V102H706.678V95.238H707.728V96.218C708.204 95.658 709.128 95.07 710.136 95.07C711.55 95.07 712.292 95.784 712.292 97.254V102ZM717.411 101.104L717.957 100.348C718.405 100.866 719.259 101.314 720.183 101.314C721.219 101.314 721.779 100.852 721.779 100.194C721.779 99.452 720.953 99.214 720.043 98.99C718.895 98.724 717.593 98.416 717.593 97.016C717.593 95.966 718.503 95.07 720.113 95.07C721.261 95.07 722.073 95.504 722.619 96.05L722.129 96.778C721.723 96.288 720.981 95.924 720.113 95.924C719.189 95.924 718.615 96.344 718.615 96.946C718.615 97.604 719.385 97.814 720.267 98.024C721.443 98.29 722.801 98.626 722.801 100.124C722.801 101.258 721.891 102.168 720.141 102.168C719.035 102.168 718.097 101.832 717.411 101.104ZM724.129 104.646L724.297 103.694C724.451 103.764 724.703 103.806 724.871 103.806C725.333 103.806 725.641 103.652 725.879 103.092L726.327 102.07L723.499 95.238H724.633L726.887 100.782L729.127 95.238H730.275L726.887 103.372C726.481 104.352 725.795 104.73 724.899 104.744C724.675 104.744 724.325 104.702 724.129 104.646ZM730.782 101.104L731.328 100.348C731.776 100.866 732.63 101.314 733.554 101.314C734.59 101.314 735.15 100.852 735.15 100.194C735.15 99.452 734.324 99.214 733.414 98.99C732.266 98.724 730.964 98.416 730.964 97.016C730.964 95.966 731.874 95.07 733.484 95.07C734.632 95.07 735.444 95.504 735.99 96.05L735.5 96.778C735.094 96.288 734.352 95.924 733.484 95.924C732.56 95.924 731.986 96.344 731.986 96.946C731.986 97.604 732.756 97.814 733.638 98.024C734.814 98.29 736.172 98.626 736.172 100.124C736.172 101.258 735.262 102.168 733.512 102.168C732.406 102.168 731.468 101.832 730.782 101.104ZM739.586 102.168C738.592 102.168 738.088 101.594 738.088 100.586V96.162H736.968V95.238H738.088V93.39H739.138V95.238H740.51V96.162H739.138V100.362C739.138 100.866 739.362 101.23 739.824 101.23C740.118 101.23 740.398 101.104 740.538 100.95L740.846 101.734C740.58 101.986 740.202 102.168 739.586 102.168ZM741.601 98.612C741.601 96.652 743.001 95.07 744.933 95.07C746.977 95.07 748.181 96.666 748.181 98.696V98.962H742.707C742.791 100.236 743.687 101.3 745.143 101.3C745.913 101.3 746.697 100.992 747.229 100.446L747.733 101.132C747.061 101.804 746.151 102.168 745.045 102.168C743.043 102.168 741.601 100.726 741.601 98.612ZM744.919 95.938C743.477 95.938 742.763 97.156 742.707 98.192H747.145C747.131 97.184 746.459 95.938 744.919 95.938ZM759.094 102H758.044V97.408C758.044 96.554 757.666 96.008 756.798 96.008C756.098 96.008 755.356 96.512 755.006 97.044V102H753.956V97.408C753.956 96.554 753.592 96.008 752.71 96.008C752.024 96.008 751.296 96.512 750.932 97.058V102H749.882V95.238H750.932V96.218C751.212 95.784 752.122 95.07 753.116 95.07C754.152 95.07 754.74 95.63 754.936 96.33C755.314 95.714 756.224 95.07 757.204 95.07C758.436 95.07 759.094 95.756 759.094 97.114V102ZM650.866 120.296L650.236 120.786C648.976 119.064 648.262 116.852 648.262 114.598C648.262 112.344 648.976 110.146 650.236 108.41L650.866 108.886C649.97 110.664 649.41 112.26 649.41 114.598C649.41 116.922 649.97 118.532 650.866 120.296ZM661.353 118H660.191V110.23L657.013 118H656.537L653.373 110.23V118H652.211V108.662H653.877L656.775 115.774L659.687 108.662H661.353V118ZM663.531 114.374V108.662H664.693V114.346C664.693 116.054 665.617 117.132 667.339 117.132C669.061 117.132 669.985 116.054 669.985 114.346V108.662H671.147V114.36C671.147 116.684 669.873 118.168 667.339 118.168C664.805 118.168 663.531 116.67 663.531 114.374ZM674.496 118H673.334V108.662H674.496V118ZM676.907 119.778L676.389 119.344C676.837 119.05 677.243 118.504 677.299 118.042C677.271 118.056 677.173 118.07 677.103 118.07C676.711 118.07 676.431 117.776 676.431 117.356C676.431 116.95 676.753 116.6 677.173 116.6C677.635 116.6 678.055 116.992 678.055 117.664C678.055 118.518 677.551 119.316 676.907 119.778ZM687.901 118.168C685.255 118.168 683.141 116.208 683.141 113.338C683.141 110.468 685.255 108.508 687.901 108.508C689.595 108.508 690.743 109.306 691.485 110.356L690.505 110.902C689.973 110.118 689.007 109.544 687.901 109.544C685.899 109.544 684.345 111.112 684.345 113.338C684.345 115.55 685.899 117.132 687.901 117.132C689.007 117.132 689.973 116.572 690.505 115.774L691.499 116.32C690.715 117.384 689.595 118.168 687.901 118.168ZM698.216 118H697.166V117.23C696.606 117.846 695.836 118.168 694.926 118.168C693.778 118.168 692.56 117.398 692.56 115.928C692.56 114.416 693.778 113.702 694.926 113.702C695.85 113.702 696.62 113.996 697.166 114.626V113.408C697.166 112.498 696.438 111.98 695.458 111.98C694.646 111.98 693.988 112.274 693.386 112.918L692.896 112.19C693.624 111.434 694.492 111.07 695.598 111.07C697.026 111.07 698.216 111.714 698.216 113.352V118ZM697.166 116.572V115.298C696.76 114.738 696.046 114.458 695.304 114.458C694.324 114.458 693.638 115.074 693.638 115.942C693.638 116.796 694.324 117.412 695.304 117.412C696.046 117.412 696.76 117.132 697.166 116.572ZM701.371 118H700.321V111.238H701.371V112.33C701.917 111.616 702.701 111.098 703.625 111.098V112.176C703.499 112.148 703.373 112.134 703.205 112.134C702.561 112.134 701.679 112.666 701.371 113.212V118ZM705.992 118H704.942V108.662H705.992V112.26C706.538 111.518 707.35 111.07 708.274 111.07C710.038 111.07 711.284 112.47 711.284 114.626C711.284 116.824 710.038 118.168 708.274 118.168C707.322 118.168 706.496 117.678 705.992 116.992V118ZM705.992 113.1V116.166C706.356 116.754 707.182 117.23 708.008 117.23C709.38 117.23 710.192 116.124 710.192 114.626C710.192 113.128 709.38 112.008 708.008 112.008C707.182 112.008 706.356 112.512 705.992 113.1ZM715.949 118.168C713.891 118.168 712.603 116.572 712.603 114.612C712.603 112.652 713.891 111.07 715.949 111.07C718.007 111.07 719.295 112.652 719.295 114.612C719.295 116.572 718.007 118.168 715.949 118.168ZM715.949 117.23C717.391 117.23 718.189 115.998 718.189 114.612C718.189 113.24 717.391 112.008 715.949 112.008C714.507 112.008 713.695 113.24 713.695 114.612C713.695 115.998 714.507 117.23 715.949 117.23ZM726.621 118H725.571V113.576C725.571 112.386 724.969 112.008 724.059 112.008C723.233 112.008 722.449 112.512 722.057 113.058V118H721.007V111.238H722.057V112.218C722.533 111.658 723.457 111.07 724.465 111.07C725.879 111.07 726.621 111.784 726.621 113.254V118ZM728.984 119.778L728.466 119.344C728.914 119.05 729.32 118.504 729.376 118.042C729.348 118.056 729.25 118.07 729.18 118.07C728.788 118.07 728.508 117.776 728.508 117.356C728.508 116.95 728.83 116.6 729.25 116.6C729.712 116.6 730.132 116.992 730.132 117.664C730.132 118.518 729.628 119.316 728.984 119.778ZM735.161 114.612C735.161 112.652 736.561 111.07 738.493 111.07C740.537 111.07 741.741 112.666 741.741 114.696V114.962H736.267C736.351 116.236 737.247 117.3 738.703 117.3C739.473 117.3 740.257 116.992 740.789 116.446L741.293 117.132C740.621 117.804 739.711 118.168 738.605 118.168C736.603 118.168 735.161 116.726 735.161 114.612ZM738.479 111.938C737.037 111.938 736.323 113.156 736.267 114.192H740.705C740.691 113.184 740.019 111.938 738.479 111.938ZM745.15 118.168C744.156 118.168 743.652 117.594 743.652 116.586V112.162H742.532V111.238H743.652V109.39H744.702V111.238H746.074V112.162H744.702V116.362C744.702 116.866 744.926 117.23 745.388 117.23C745.682 117.23 745.962 117.104 746.102 116.95L746.41 117.734C746.144 117.986 745.766 118.168 745.15 118.168ZM747.165 114.612C747.165 112.61 748.523 111.07 750.539 111.07C751.771 111.07 752.499 111.574 753.017 112.246L752.317 112.89C751.869 112.274 751.295 112.008 750.595 112.008C749.153 112.008 748.257 113.114 748.257 114.612C748.257 116.11 749.153 117.23 750.595 117.23C751.295 117.23 751.869 116.95 752.317 116.348L753.017 116.992C752.499 117.664 751.771 118.168 750.539 118.168C748.523 118.168 747.165 116.628 747.165 114.612ZM754.279 117.37C754.279 116.95 754.629 116.6 755.049 116.6C755.469 116.6 755.819 116.95 755.819 117.37C755.819 117.79 755.469 118.14 755.049 118.14C754.629 118.14 754.279 117.79 754.279 117.37ZM758.374 114.598C758.374 112.26 757.814 110.664 756.904 108.886L757.534 108.41C758.808 110.146 759.522 112.344 759.522 114.598C759.522 116.852 758.808 119.064 757.534 120.786L756.904 120.296C757.814 118.532 758.374 116.922 758.374 114.598Z"
            fill="#00267B"
          ></path>
        </g>
        <g class="progress-line-2">
          <path
            d="M26.1074 246.286C89.9031 315.444 73.2807 27.2953 778 24"
            stroke="#0045E6"
            stroke-width="2"
            stroke-linecap="round"
          ></path>
          <path
            d="M681.986 12H680.726L678.668 4.468L676.61 12H675.35L672.69 2.662H673.978L676.05 10.446L678.192 2.662H679.158L681.3 10.446L683.358 2.662L684.646 2.662L681.986 12ZM686.421 4.104C686.043 4.104 685.721 3.782 685.721 3.39C685.721 2.998 686.043 2.69 686.421 2.69C686.813 2.69 687.135 2.998 687.135 3.39C687.135 3.782 686.813 4.104 686.421 4.104ZM686.953 12H685.903V5.238H686.953V12ZM690.756 12.168C689.762 12.168 689.258 11.594 689.258 10.586V6.162L688.138 6.162V5.238L689.258 5.238V3.39L690.308 3.39V5.238H691.68V6.162H690.308V10.362C690.308 10.866 690.532 11.23 690.994 11.23C691.288 11.23 691.568 11.104 691.708 10.95L692.016 11.734C691.75 11.986 691.372 12.168 690.756 12.168ZM698.791 12H697.741V7.548C697.741 6.358 697.125 6.008 696.215 6.008C695.403 6.008 694.619 6.512 694.213 7.058V12H693.163V2.662H694.213V6.218C694.689 5.658 695.613 5.07 696.635 5.07C698.049 5.07 698.791 5.756 698.791 7.226V12ZM710.657 12L704.539 12V2.662L710.657 2.662V3.698L705.701 3.698V6.708H710.559V7.744H705.701V10.964L710.657 10.964V12ZM718.012 12H712.51V2.662L713.672 2.662V10.964H718.012V12ZM725.764 12L719.646 12V2.662L725.764 2.662V3.698L720.808 3.698V6.708L725.666 6.708V7.744L720.808 7.744V10.964H725.764V12ZM734.701 12H733.259L729.717 7.8L728.779 8.864V12H727.617V2.662H728.779V7.492L732.909 2.662H734.365L730.473 7.1L734.701 12ZM735.465 10.684L736.151 9.802C736.767 10.488 737.775 11.132 739.091 11.132C740.757 11.132 741.289 10.236 741.289 9.522C741.289 8.402 740.155 8.094 738.923 7.758C737.425 7.366 735.759 6.946 735.759 5.112C735.759 3.572 737.131 2.522 738.965 2.522C740.393 2.522 741.499 2.998 742.283 3.824L741.583 4.678C740.883 3.908 739.903 3.558 738.881 3.558C737.761 3.558 736.963 4.16 736.963 5.042C736.963 5.98 738.041 6.26 739.231 6.582C740.757 6.988 742.493 7.464 742.493 9.424C742.493 10.782 741.569 12.168 739.049 12.168C737.425 12.168 736.235 11.552 735.465 10.684ZM747.838 8.374V2.662H749V8.346C749 10.054 749.924 11.132 751.646 11.132C753.368 11.132 754.292 10.054 754.292 8.346V2.662H755.454V8.36C755.454 10.684 754.18 12.168 751.646 12.168C749.112 12.168 747.838 10.67 747.838 8.374ZM758.802 12H757.64V2.662H758.802V12Z"
            fill="#0045E6"
          ></path>
        </g>
        <path
          class="point-1"
          d="M371.5 244.5C371.5 245.881 370.381 247 369 247C367.619 247 366.5 245.881 366.5 244.5C366.5 243.119 367.619 242 369 242C370.381 242 371.5 243.119 371.5 244.5Z"
          fill="#C7C7D6"
        ></path>
        <path
          class="point-2"
          d="M70 244.5C70 245.881 68.8807 247 67.5 247C66.1193 247 65 245.881 65 244.5C65 243.119 66.1193 242 67.5 242C68.8807 242 70 243.119 70 244.5Z"
          fill="#C7C7D6"
        ></path>

        <path
          class="text-vertical-line-1"
          d="M46.2267 451H40.1087V441.662H46.2267V442.698H41.2707V445.708H46.1287V446.744H41.2707V449.964H46.2267V451ZM53.5814 451H48.0794V441.662H49.2414V449.964H53.5814V451ZM61.3341 451H55.2161V441.662H61.3341V442.698H56.3781V445.708H61.2361V446.744H56.3781V449.964H61.3341V451ZM70.2708 451H68.8288L65.2868 446.8L64.3488 447.864V451H63.1868V441.662H64.3488V446.492L68.4788 441.662H69.9348L66.0428 446.1L70.2708 451ZM71.035 449.684L71.721 448.802C72.337 449.488 73.345 450.132 74.661 450.132C76.327 450.132 76.859 449.236 76.859 448.522C76.859 447.402 75.725 447.094 74.493 446.758C72.995 446.366 71.329 445.946 71.329 444.112C71.329 442.572 72.701 441.522 74.535 441.522C75.963 441.522 77.069 441.998 77.853 442.824L77.153 443.678C76.453 442.908 75.473 442.558 74.451 442.558C73.331 442.558 72.533 443.16 72.533 444.042C72.533 444.98 73.611 445.26 74.801 445.582C76.327 445.988 78.063 446.464 78.063 448.424C78.063 449.782 77.139 451.168 74.619 451.168C72.995 451.168 71.805 450.552 71.035 449.684ZM83.4075 447.374V441.662H84.5695V447.346C84.5695 449.054 85.4935 450.132 87.2155 450.132C88.9375 450.132 89.8615 449.054 89.8615 447.346V441.662H91.0235V447.36C91.0235 449.684 89.7495 451.168 87.2155 451.168C84.6815 451.168 83.4075 449.67 83.4075 447.374ZM94.3723 451H93.2103V441.662H94.3723V451ZM48.1779 467H46.8899L46.0639 464.928H41.3319L40.5059 467H39.2179L42.9699 457.662H44.4119L48.1779 467ZM45.7139 463.892L43.6979 458.698L41.6679 463.892H45.7139ZM55.3067 467H54.2567V465.992C53.7527 466.678 52.9267 467.168 51.9747 467.168C50.2107 467.168 48.9647 465.824 48.9647 463.626C48.9647 461.47 50.1967 460.07 51.9747 460.07C52.8847 460.07 53.7107 460.518 54.2567 461.26V457.662H55.3067V467ZM54.2567 465.166V462.1C53.8787 461.512 53.0667 461.008 52.2267 461.008C50.8687 461.008 50.0567 462.128 50.0567 463.626C50.0567 465.124 50.8687 466.23 52.2267 466.23C53.0667 466.23 53.8787 465.754 54.2567 465.166ZM60.3635 467.168C58.3055 467.168 57.0175 465.572 57.0175 463.612C57.0175 461.652 58.3055 460.07 60.3635 460.07C62.4215 460.07 63.7095 461.652 63.7095 463.612C63.7095 465.572 62.4215 467.168 60.3635 467.168ZM60.3635 466.23C61.8055 466.23 62.6035 464.998 62.6035 463.612C62.6035 462.24 61.8055 461.008 60.3635 461.008C58.9215 461.008 58.1095 462.24 58.1095 463.612C58.1095 464.998 58.9215 466.23 60.3635 466.23ZM66.4712 465.978V469.576H65.4212V460.238H66.4712V461.246C66.9612 460.56 67.8012 460.07 68.7532 460.07C70.5312 460.07 71.7632 461.414 71.7632 463.612C71.7632 465.796 70.5312 467.168 68.7532 467.168C67.8292 467.168 67.0172 466.734 66.4712 465.978ZM70.6572 463.612C70.6572 462.114 69.8452 461.008 68.4872 461.008C67.6612 461.008 66.8352 461.498 66.4712 462.086V465.138C66.8352 465.726 67.6612 466.23 68.4872 466.23C69.8452 466.23 70.6572 465.11 70.6572 463.612ZM75.1682 467.168C74.1742 467.168 73.6702 466.594 73.6702 465.586V461.162H72.5502V460.238H73.6702V458.39H74.7202V460.238H76.0922V461.162H74.7202V465.362C74.7202 465.866 74.9442 466.23 75.4062 466.23C75.7002 466.23 75.9802 466.104 76.1202 465.95L76.4282 466.734C76.1622 466.986 75.7842 467.168 75.1682 467.168ZM78.0935 459.104C77.7155 459.104 77.3935 458.782 77.3935 458.39C77.3935 457.998 77.7155 457.69 78.0935 457.69C78.4855 457.69 78.8075 457.998 78.8075 458.39C78.8075 458.782 78.4855 459.104 78.0935 459.104ZM78.6255 467H77.5755V460.238H78.6255V467ZM83.674 467.168C81.616 467.168 80.328 465.572 80.328 463.612C80.328 461.652 81.616 460.07 83.674 460.07C85.732 460.07 87.02 461.652 87.02 463.612C87.02 465.572 85.732 467.168 83.674 467.168ZM83.674 466.23C85.116 466.23 85.914 464.998 85.914 463.612C85.914 462.24 85.116 461.008 83.674 461.008C82.232 461.008 81.42 462.24 81.42 463.612C81.42 464.998 82.232 466.23 83.674 466.23ZM94.3457 467H93.2957V462.576C93.2957 461.386 92.6937 461.008 91.7837 461.008C90.9577 461.008 90.1737 461.512 89.7817 462.058V467H88.7317V460.238H89.7817V461.218C90.2577 460.658 91.1817 460.07 92.1897 460.07C93.6037 460.07 94.3457 460.784 94.3457 462.254V467Z"
          fill="#0045E6"
        ></path>
        <path
          class="text-vertical-line-2"
          d="M320.362 451H319.074L318.248 448.928H313.516L312.69 451H311.402L315.154 441.662H316.596L320.362 451ZM317.898 447.892L315.882 442.698L313.852 447.892H317.898ZM327.155 451H326.105V446.576C326.105 445.386 325.503 445.008 324.593 445.008C323.767 445.008 322.983 445.512 322.591 446.058V451H321.541V444.238H322.591V445.218C323.067 444.658 323.991 444.07 324.999 444.07C326.413 444.07 327.155 444.784 327.155 446.254V451ZM328.874 453.646L329.042 452.694C329.196 452.764 329.448 452.806 329.616 452.806C330.078 452.806 330.386 452.652 330.624 452.092L331.072 451.07L328.244 444.238H329.378L331.632 449.782L333.872 444.238H335.02L331.632 452.372C331.226 453.352 330.54 453.73 329.644 453.744C329.42 453.744 329.07 453.702 328.874 453.646ZM345.675 451H344.625V449.992C344.121 450.678 343.295 451.168 342.343 451.168C340.579 451.168 339.333 449.824 339.333 447.626C339.333 445.47 340.565 444.07 342.343 444.07C343.253 444.07 344.079 444.518 344.625 445.26V441.662H345.675V451ZM344.625 449.166V446.1C344.247 445.512 343.435 445.008 342.595 445.008C341.237 445.008 340.425 446.128 340.425 447.626C340.425 449.124 341.237 450.23 342.595 450.23C343.435 450.23 344.247 449.754 344.625 449.166ZM347.386 447.612C347.386 445.652 348.786 444.07 350.718 444.07C352.762 444.07 353.966 445.666 353.966 447.696V447.962H348.492C348.576 449.236 349.472 450.3 350.928 450.3C351.698 450.3 352.482 449.992 353.014 449.446L353.518 450.132C352.846 450.804 351.936 451.168 350.83 451.168C348.828 451.168 347.386 449.726 347.386 447.612ZM350.704 444.938C349.262 444.938 348.548 446.156 348.492 447.192H352.93C352.916 446.184 352.244 444.938 350.704 444.938ZM355.078 450.104L355.624 449.348C356.072 449.866 356.926 450.314 357.85 450.314C358.886 450.314 359.446 449.852 359.446 449.194C359.446 448.452 358.62 448.214 357.71 447.99C356.562 447.724 355.26 447.416 355.26 446.016C355.26 444.966 356.17 444.07 357.78 444.07C358.928 444.07 359.74 444.504 360.286 445.05L359.796 445.778C359.39 445.288 358.648 444.924 357.78 444.924C356.856 444.924 356.282 445.344 356.282 445.946C356.282 446.604 357.052 446.814 357.934 447.024C359.11 447.29 360.468 447.626 360.468 449.124C360.468 450.258 359.558 451.168 357.808 451.168C356.702 451.168 355.764 450.832 355.078 450.104ZM362.692 443.104C362.314 443.104 361.992 442.782 361.992 442.39C361.992 441.998 362.314 441.69 362.692 441.69C363.084 441.69 363.406 441.998 363.406 442.39C363.406 442.782 363.084 443.104 362.692 443.104ZM363.224 451H362.174V444.238H363.224V451ZM365.305 452.736L365.837 451.952C366.397 452.624 367.069 452.876 368.035 452.876C369.155 452.876 370.205 452.33 370.205 450.846V449.88C369.715 450.566 368.889 451.084 367.937 451.084C366.173 451.084 364.927 449.768 364.927 447.584C364.927 445.414 366.159 444.07 367.937 444.07C368.847 444.07 369.659 444.518 370.205 445.26V444.238H371.255V450.804C371.255 453.044 369.687 453.744 368.035 453.744C366.887 453.744 366.103 453.52 365.305 452.736ZM370.205 449.054V446.1C369.841 445.512 369.029 445.008 368.189 445.008C366.831 445.008 366.019 446.086 366.019 447.584C366.019 449.068 366.831 450.16 368.189 450.16C369.029 450.16 369.841 449.642 370.205 449.054ZM378.972 451H377.922V446.576C377.922 445.386 377.32 445.008 376.41 445.008C375.584 445.008 374.8 445.512 374.408 446.058V451H373.358V444.238H374.408V445.218C374.884 444.658 375.808 444.07 376.816 444.07C378.23 444.07 378.972 444.784 378.972 446.254V451ZM384.09 450.104L384.636 449.348C385.084 449.866 385.938 450.314 386.862 450.314C387.898 450.314 388.458 449.852 388.458 449.194C388.458 448.452 387.632 448.214 386.722 447.99C385.574 447.724 384.272 447.416 384.272 446.016C384.272 444.966 385.182 444.07 386.792 444.07C387.94 444.07 388.752 444.504 389.298 445.05L388.808 445.778C388.402 445.288 387.66 444.924 386.792 444.924C385.868 444.924 385.294 445.344 385.294 445.946C385.294 446.604 386.064 446.814 386.946 447.024C388.122 447.29 389.48 447.626 389.48 449.124C389.48 450.258 388.57 451.168 386.82 451.168C385.714 451.168 384.776 450.832 384.09 450.104ZM390.808 453.646L390.976 452.694C391.13 452.764 391.382 452.806 391.55 452.806C392.012 452.806 392.32 452.652 392.558 452.092L393.006 451.07L390.178 444.238H391.312L393.566 449.782L395.806 444.238H396.954L393.566 452.372C393.16 453.352 392.474 453.73 391.578 453.744C391.354 453.744 391.004 453.702 390.808 453.646ZM397.461 450.104L398.007 449.348C398.455 449.866 399.309 450.314 400.233 450.314C401.269 450.314 401.829 449.852 401.829 449.194C401.829 448.452 401.003 448.214 400.093 447.99C398.945 447.724 397.643 447.416 397.643 446.016C397.643 444.966 398.553 444.07 400.163 444.07C401.311 444.07 402.123 444.504 402.669 445.05L402.179 445.778C401.773 445.288 401.031 444.924 400.163 444.924C399.239 444.924 398.665 445.344 398.665 445.946C398.665 446.604 399.435 446.814 400.317 447.024C401.493 447.29 402.851 447.626 402.851 449.124C402.851 450.258 401.941 451.168 400.191 451.168C399.085 451.168 398.147 450.832 397.461 450.104ZM406.265 451.168C405.271 451.168 404.767 450.594 404.767 449.586V445.162H403.647V444.238H404.767V442.39H405.817V444.238H407.189V445.162H405.817V449.362C405.817 449.866 406.041 450.23 406.503 450.23C406.797 450.23 407.077 450.104 407.217 449.95L407.525 450.734C407.259 450.986 406.881 451.168 406.265 451.168ZM408.28 447.612C408.28 445.652 409.68 444.07 411.612 444.07C413.656 444.07 414.86 445.666 414.86 447.696V447.962H409.386C409.47 449.236 410.366 450.3 411.822 450.3C412.592 450.3 413.376 449.992 413.908 449.446L414.412 450.132C413.74 450.804 412.83 451.168 411.724 451.168C409.722 451.168 408.28 449.726 408.28 447.612ZM411.598 444.938C410.156 444.938 409.442 446.156 409.386 447.192H413.824C413.81 446.184 413.138 444.938 411.598 444.938ZM425.773 451H424.723V446.408C424.723 445.554 424.345 445.008 423.477 445.008C422.777 445.008 422.035 445.512 421.685 446.044V451H420.635V446.408C420.635 445.554 420.271 445.008 419.389 445.008C418.703 445.008 417.975 445.512 417.611 446.058V451H416.561V444.238H417.611V445.218C417.891 444.784 418.801 444.07 419.795 444.07C420.831 444.07 421.419 444.63 421.615 445.33C421.993 444.714 422.903 444.07 423.883 444.07C425.115 444.07 425.773 444.756 425.773 446.114V451ZM349.983 467H348.695L347.869 464.928H343.137L342.311 467H341.023L344.775 457.662H346.217L349.983 467ZM347.519 463.892L345.503 458.698L343.473 463.892H347.519ZM357.111 467H356.061V465.992C355.557 466.678 354.731 467.168 353.779 467.168C352.015 467.168 350.769 465.824 350.769 463.626C350.769 461.47 352.001 460.07 353.779 460.07C354.689 460.07 355.515 460.518 356.061 461.26V457.662H357.111V467ZM356.061 465.166V462.1C355.683 461.512 354.871 461.008 354.031 461.008C352.673 461.008 351.861 462.128 351.861 463.626C351.861 465.124 352.673 466.23 354.031 466.23C354.871 466.23 355.683 465.754 356.061 465.166ZM362.168 467.168C360.11 467.168 358.822 465.572 358.822 463.612C358.822 461.652 360.11 460.07 362.168 460.07C364.226 460.07 365.514 461.652 365.514 463.612C365.514 465.572 364.226 467.168 362.168 467.168ZM362.168 466.23C363.61 466.23 364.408 464.998 364.408 463.612C364.408 462.24 363.61 461.008 362.168 461.008C360.726 461.008 359.914 462.24 359.914 463.612C359.914 464.998 360.726 466.23 362.168 466.23ZM368.276 465.978V469.576H367.226V460.238H368.276V461.246C368.766 460.56 369.606 460.07 370.558 460.07C372.336 460.07 373.568 461.414 373.568 463.612C373.568 465.796 372.336 467.168 370.558 467.168C369.634 467.168 368.822 466.734 368.276 465.978ZM372.462 463.612C372.462 462.114 371.65 461.008 370.292 461.008C369.466 461.008 368.64 461.498 368.276 462.086V465.138C368.64 465.726 369.466 466.23 370.292 466.23C371.65 466.23 372.462 465.11 372.462 463.612ZM376.973 467.168C375.979 467.168 375.475 466.594 375.475 465.586V461.162H374.355V460.238H375.475V458.39H376.525V460.238H377.897V461.162H376.525V465.362C376.525 465.866 376.749 466.23 377.211 466.23C377.505 466.23 377.785 466.104 377.925 465.95L378.233 466.734C377.967 466.986 377.589 467.168 376.973 467.168ZM379.898 459.104C379.52 459.104 379.198 458.782 379.198 458.39C379.198 457.998 379.52 457.69 379.898 457.69C380.29 457.69 380.612 457.998 380.612 458.39C380.612 458.782 380.29 459.104 379.898 459.104ZM380.43 467H379.38V460.238H380.43V467ZM385.479 467.168C383.421 467.168 382.133 465.572 382.133 463.612C382.133 461.652 383.421 460.07 385.479 460.07C387.537 460.07 388.825 461.652 388.825 463.612C388.825 465.572 387.537 467.168 385.479 467.168ZM385.479 466.23C386.921 466.23 387.719 464.998 387.719 463.612C387.719 462.24 386.921 461.008 385.479 461.008C384.037 461.008 383.225 462.24 383.225 463.612C383.225 464.998 384.037 466.23 385.479 466.23ZM396.15 467H395.1V462.576C395.1 461.386 394.498 461.008 393.588 461.008C392.762 461.008 391.978 461.512 391.586 462.058V467H390.536V460.238H391.586V461.218C392.062 460.658 392.986 460.07 393.994 460.07C395.408 460.07 396.15 460.784 396.15 462.254V467Z"
          fill="#54575E"
        ></path>
      </g>
      <defs>
        <clipPath id="clip0_36176_99019">
          <rect width="778" height="471" fill="white"></rect>
        </clipPath>
        <clipPath id="clip1_36176_99019">
          <rect
            width="343.946"
            height="146"
            fill="white"
            transform="translate(25.0635 245)"
          ></rect>
        </clipPath>
      </defs>
    </svg>